# xmcd
#
# Track frame offsets:
#	150
#	15562
#	28485
#	39735
#	53637
#	66402
#	76052
#	89147
#
# Disc length: 1397 seconds
#
# Revision: 0
# Processed by: cddbd v1.4PL0 Copyright (c) Steve Scherf et al.
# Submitted via: dBpowerAMP V4.0
#
DISCID=68057308
DTITLE=Paul Overstreet - Lost And Found
DYEAR=1986
DGENRE=Country
TTITLE0=Heart Of My Heart
TTITLE1=Lost And Found
TTITLE2=Heaven Is A Place I'm Gonna Go
TTITLE3=Until We Know
TTITLE4=Oh Why
TTITLE5=Just Like Jesus
TTITLE6=I Will Carry My Cross For You
TTITLE7=He Is Risen
EXTD=
EXTT0=
EXTT1=
EXTT2=
EXTT3=
EXTT4=
EXTT5=
EXTT6=
EXTT7=
PLAYORDER=
